<?xml version="1.0" encoding="iso-8859-1"?>
<!-- Generator: Adobe Illustrator 19.0.0, SVG Export Plug-In . SVG Version: 6.00 Build 0)  -->
<svg xmlns="http://www.w3.org/2000/svg" xmlns:xlink="http://www.w3.org/1999/xlink" version="1.1" id="Layer_1" x="0px" y="0px" viewBox="0 0 512 512" style="enable-background:new 0 0 512 512;" xml:space="preserve" width="512" height="512">
<path d="M452,196C452,87.925,364.075,0,256,0S60,87.925,60,196c0,41.117,12.652,80.507,36.588,113.915l50.407,71.815L146.997,407  c0.001,19.555,12.542,36.227,30.001,42.419L177,512h158l-0.002-62.58c17.458-6.192,29.999-22.865,29.999-42.421l-0.001-25.269  l50.414-71.812C439.348,276.51,452,237.12,452,196z M256,30c91.533,0,166,74.467,166,166c0,15.39-2.097,30.493-6.184,45H96.184  C92.097,226.493,90,211.39,90,196C90,104.467,164.467,30,256,30z M176.996,391.991h158L334.997,407c0,8.271-6.729,15-15,15h-128  c-8.271,0-15.001-6.729-15.001-15L176.996,391.991z M206.999,482l-0.001-30h98l0.001,30H206.999z M342.198,361.991H169.793  l-48.69-69.369l-0.087-0.124c-4.935-6.882-9.3-14.067-13.087-21.498h296.144c-3.787,7.431-8.152,14.616-13.087,21.498  L342.198,361.991z"/>















</svg>
