<svg xmlns="http://www.w3.org/2000/svg" width="31.441" height="28.027" viewBox="0 0 31.441 28.027">
  <defs>
    <style>
      .cls-1 {
        fill: #fdca10;
      }
    </style>
  </defs>
  <g id="casa" transform="translate(0.001 -27.797)">
    <g id="Group_48" data-name="Group 48" transform="translate(-0.001 27.798)">
      <g id="Group_47" data-name="Group 47">
        <path id="Path_60" data-name="Path 60" class="cls-1" d="M31.106,38.867,16.2,27.955a.817.817,0,0,0-.965,0L.334,38.867A.817.817,0,1,0,1.3,40.186L15.72,29.627,30.141,40.186a.817.817,0,0,0,.965-1.318Z" transform="translate(0.001 -27.798)"/>
      </g>
    </g>
    <g id="Group_50" data-name="Group 50" transform="translate(3.466 40.37)">
      <g id="Group_49" data-name="Group 49">
        <path id="Path_61" data-name="Path 61" class="cls-1" d="M80.143,232.543a.817.817,0,0,0-.817.817v13H72.791v-7.1a4.085,4.085,0,0,0-8.17,0v7.1H58.086v-13a.817.817,0,1,0-1.634,0v13.82a.817.817,0,0,0,.817.817h8.169a.816.816,0,0,0,.814-.753.617.617,0,0,0,0-.064v-7.915a2.451,2.451,0,1,1,4.9,0v7.915a.6.6,0,0,0,0,.063.816.816,0,0,0,.814.754h8.169a.817.817,0,0,0,.817-.817V233.36A.817.817,0,0,0,80.143,232.543Z" transform="translate(-56.452 -232.543)"/>
      </g>
    </g>
  </g>
</svg>
