<svg xmlns="http://www.w3.org/2000/svg" viewBox="0 0 326.84 435.79"><title>door_close</title><g id="Layer_2" data-name="Layer 2"><g id="Capa_1" data-name="Capa 1"><path d="M314.74,435.79a12.12,12.12,0,0,1-12.11-12.11V24.21H24.21V423.68a12.11,12.11,0,1,1-24.21,0V12.1A12.11,12.11,0,0,1,12.11,0H314.74a12.11,12.11,0,0,1,12.1,12.1V423.68A12.11,12.11,0,0,1,314.74,435.79ZM287.5,45.4V423.68H39.34V45.4ZM99.87,237.57c0-10.87-7.45-19.67-16.65-19.67s-16.64,8.8-16.64,19.67S74,257.24,83.22,257.24,99.87,248.43,99.87,237.57Z"/></g></g></svg>