<svg xmlns="http://www.w3.org/2000/svg" width="34.526" height="28.027" viewBox="0 0 34.526 28.027">
  <defs>
    <style>
      .cls-1 {
        fill: #eaeaea;
      }
    </style>
  </defs>
  <g id="hotel" transform="translate(-2.656 -11.06)">
    <g id="Group_54" data-name="Group 54" transform="translate(2.656 11.06)">
      <g id="Group_53" data-name="Group 53">
        <g id="Group_52" data-name="Group 52">
          <path id="Path_63" data-name="Path 63" class="cls-1" d="M94.87,217.83v-7.393A2.444,2.444,0,0,0,92.433,208H69.687a2.444,2.444,0,0,0-2.437,2.437v7.393A4.073,4.073,0,0,0,64,221.81v13a.815.815,0,0,0,.812.812h3.249a.815.815,0,0,0,.812-.812v-2.437H93.245v2.437a.815.815,0,0,0,.812.812h3.249a.815.815,0,0,0,.812-.812v-13A4.073,4.073,0,0,0,94.87,217.83Zm-26-7.393a.815.815,0,0,1,.812-.812H92.433a.815.815,0,0,1,.812.812v7.311H91.621V214.5a2.444,2.444,0,0,0-2.437-2.437H84.309a2.444,2.444,0,0,0-2.437,2.437v3.249H80.247V214.5a2.444,2.444,0,0,0-2.437-2.437H72.936A2.444,2.444,0,0,0,70.5,214.5v3.249H68.874ZM90,214.5v3.249H83.5V214.5a.815.815,0,0,1,.812-.812h4.874A.815.815,0,0,1,90,214.5Zm-11.373,0v3.249h-6.5V214.5a.815.815,0,0,1,.812-.812H77.81A.815.815,0,0,1,78.623,214.5ZM96.495,234H94.87v-2.437a.815.815,0,0,0-.812-.812h-26a.815.815,0,0,0-.812.812V234H65.625v-6.5h30.87Zm0-8.124H65.625V221.81a2.444,2.444,0,0,1,2.437-2.437h26a2.444,2.444,0,0,1,2.437,2.437Z" transform="translate(-63.797 -207.797)"/>
          <path id="Path_64" data-name="Path 64" class="cls-1" d="M95.51,234.027H92.261a1.018,1.018,0,0,1-1.015-1.015v-2.234H67.28v2.234a1.018,1.018,0,0,1-1.015,1.015H63.015A1.018,1.018,0,0,1,62,233.011v-13a4.29,4.29,0,0,1,3.249-4.143v-7.23A2.648,2.648,0,0,1,67.89,206H90.636a2.648,2.648,0,0,1,2.64,2.64v7.23a4.29,4.29,0,0,1,3.249,4.143v13A1.018,1.018,0,0,1,95.51,234.027Zm-28.636-3.656H91.652v2.64a.611.611,0,0,0,.609.609H95.51a.611.611,0,0,0,.609-.609v-13a3.868,3.868,0,0,0-3.087-3.778l-.162-.03V208.64a2.241,2.241,0,0,0-2.234-2.234H67.89a2.241,2.241,0,0,0-2.234,2.234V216.2l-.162.03a3.888,3.888,0,0,0-3.087,3.788v13a.611.611,0,0,0,.609.609h3.249a.611.611,0,0,0,.609-.609ZM94.9,232.4H92.87v-2.64a.611.611,0,0,0-.609-.609h-26a.611.611,0,0,0-.609.609v2.64H63.625V225.5H94.9ZM93.276,232h1.219V225.9H64.031V232h1.219v-2.234a1.018,1.018,0,0,1,1.015-1.015h26a1.018,1.018,0,0,1,1.015,1.015Zm1.625-7.717H63.625v-4.265a2.648,2.648,0,0,1,2.64-2.64h26a2.648,2.648,0,0,1,2.64,2.64Zm-30.87-.406H94.495v-3.859a2.241,2.241,0,0,0-2.234-2.234h-26a2.241,2.241,0,0,0-2.234,2.234Zm27.621-7.718H89.621V212.7a2.241,2.241,0,0,0-2.234-2.234H82.512a2.241,2.241,0,0,0-2.234,2.234v3.453H78.247V212.7a2.241,2.241,0,0,0-2.234-2.234H71.139a2.241,2.241,0,0,0-2.234,2.234v3.453H66.874V208.64a1.018,1.018,0,0,1,1.015-1.015H90.636a1.018,1.018,0,0,1,1.015,1.015Zm-1.625-.406h1.219V208.64a.611.611,0,0,0-.609-.609H67.89a.611.611,0,0,0-.609.609v7.108H68.5V212.7a2.648,2.648,0,0,1,2.64-2.64h4.874a2.648,2.648,0,0,1,2.64,2.64v3.046h1.219V212.7a2.648,2.648,0,0,1,2.64-2.64h4.874a2.648,2.648,0,0,1,2.64,2.64Zm-1.625.406H81.5V212.7a1.018,1.018,0,0,1,1.015-1.015h4.874A1.018,1.018,0,0,1,88.4,212.7Zm-6.5-.406H88V212.7a.611.611,0,0,0-.609-.609H82.512a.611.611,0,0,0-.609.609Zm-4.874.406H70.124V212.7a1.018,1.018,0,0,1,1.015-1.015h4.874a1.018,1.018,0,0,1,1.015,1.015Zm-6.5-.406h6.093V212.7a.611.611,0,0,0-.609-.609H71.139a.611.611,0,0,0-.609.609Z" transform="translate(-62 -206)"/>
        </g>
      </g>
    </g>
  </g>
</svg>
