<?xml version="1.0" encoding="iso-8859-1"?>
<!-- Generator: Adobe Illustrator 19.0.0, SVG Export Plug-In . SVG Version: 6.00 Build 0)  -->
<svg version="1.1" id="Layer_1" xmlns="http://www.w3.org/2000/svg" xmlns:xlink="http://www.w3.org/1999/xlink" x="0px" y="0px"
	 viewBox="0 0 512 512" style="enable-background:new 0 0 512 512;" xml:space="preserve">
<g>
	<g>
		<path d="M255.999,0c-96.462,0-174.94,78.477-174.94,174.939c0,58.35,28.818,111.795,75.853,144.188V442.61
			c0,9.867,8,17.867,17.867,17.867h13.971c18.263,68.674,116.225,68.718,134.499,0h13.971c9.868,0,17.867-8,17.867-17.867V319.127
			c47.041-32.398,75.853-85.845,75.853-144.188C430.938,78.477,352.461,0,255.999,0z M227.258,460.479h57.483
			C271.446,481.785,240.538,481.764,227.258,460.479z M319.352,424.744c-13.576,0-113.811,0-126.706,0v-21.398h126.706V424.744z
			 M319.352,367.612H192.646v-29.561c39.52,15.339,84.962,16.2,126.706,0V367.612z M307.893,304.141v-81.479
			c0-9.867-8-17.867-17.867-17.867c-9.868,0-17.867,8-17.867,17.867v90.542c-11.31,1.315-21.742,1.23-32.318,0v-90.542
			c0-9.867-8-17.867-17.867-17.867c-9.867,0-17.867,8-17.867,17.867v81.479c-51.627-20.723-87.312-71.126-87.312-129.201
			c0-76.759,62.448-139.205,139.206-139.205s139.206,62.446,139.206,139.204C395.203,232.987,359.528,283.415,307.893,304.141z"/>
	</g>
</g>
<g>
</g>
<g>
</g>
<g>
</g>
<g>
</g>
<g>
</g>
<g>
</g>
<g>
</g>
<g>
</g>
<g>
</g>
<g>
</g>
<g>
</g>
<g>
</g>
<g>
</g>
<g>
</g>
<g>
</g>
</svg>
