<svg xmlns="http://www.w3.org/2000/svg" width="311.6" height="81.684" viewBox="0 0 311.6 81.684">
  <defs>
    <style>
      .cls-1, .cls-2, .cls-3, .cls-4 {
        fill: none;
      }

      .cls-1, .cls-2, .cls-3, .cls-4, .cls-6 {
        stroke: #fdca10;
      }

      .cls-1, .cls-6 {
        stroke-linecap: round;
        stroke-linejoin: round;
      }

      .cls-1, .cls-2, .cls-6 {
        stroke-width: 1.2px;
      }

      .cls-2, .cls-3, .cls-4 {
        stroke-miterlimit: 10;
      }

      .cls-4 {
        stroke-linecap: square;
      }

      .cls-5 {
        fill: #fff;
      }

      .cls-6 {
        fill: #fdca10;
      }
    </style>
  </defs>
  <g id="Group_13" data-name="Group 13" transform="translate(-24.179 -56.802)">
    <g id="Group_10" data-name="Group 10">
      <path id="Path_18" data-name="Path 18" class="cls-1" d="M74.307,65.551c-6.351,0-12.108,2.992-14.667,7.622l1,.545c2.361-4.273,7.724-7.033,13.664-7.033s11.3,2.76,13.664,7.033l1-.545C86.416,68.543,80.659,65.551,74.307,65.551Z"/>
      <path id="Path_19" data-name="Path 19" class="cls-2" d="M74.307,71.687a5.165,5.165,0,1,0,5.211,5.164A5.193,5.193,0,0,0,74.307,71.687Zm0,9.2a4.031,4.031,0,1,1,4.067-4.031A4.054,4.054,0,0,1,74.307,80.882Z"/>
      <rect id="Rectangle_19" data-name="Rectangle 19" class="cls-3" width="0.858" height="4.727" transform="translate(73.839 57.302)"/>
      <path id="Path_20" data-name="Path 20" class="cls-3" d="M83.057,63.885l2.431-4.066-.737-.434L82.32,63.45Z"/>
      <path id="Path_21" data-name="Path 21" class="cls-4" d="M93.721,65.784l-4.1,2.411.438.731,4.1-2.411Z"/>
      <path id="Path_22" data-name="Path 22" class="cls-3" d="M65.477,63.885l.738-.434-2.43-4.066-.738.434Z"/>
      <path id="Path_23" data-name="Path 23" class="cls-3" d="M58.915,68.194l-4.1-2.411-.438.731,4.1,2.411Z"/>
    </g>
    <g id="Group_11" data-name="Group 11">
      <path id="Path_24" data-name="Path 24" class="cls-5" d="M24.179,76.087h8.4v20.6H56.1V79.9h8.477v44.057H56.1V103.577H32.577v20.384h-8.4Z"/>
      <path id="Path_25" data-name="Path 25" class="cls-5" d="M70.22,88.145h8.018l.076,35.816H70.22Z"/>
      <path id="Path_26" data-name="Path 26" class="cls-5" d="M117.028,72.857v43.495a5.954,5.954,0,0,1-2.52,4.845,16.477,16.477,0,0,1-6.339,2.907,33.016,33.016,0,0,1-7.865.933q-8.17,0-13.439-4.342T81.6,105.515q0-8.685,4.506-13.566t13.362-4.881a26.613,26.613,0,0,1,4.773.5,19.906,19.906,0,0,1,4.848,1.507V72.857Zm-7.942,22.752A16.386,16.386,0,0,0,105,94.067a18.793,18.793,0,0,0-4.39-.539q-10.844,0-10.842,12.13,0,6.029,2.444,9.438t8.551,3.41a19.176,19.176,0,0,0,5.917-.789q2.408-.791,2.406-2.083Z"/>
      <path id="Path_27" data-name="Path 27" class="cls-5" d="M155.512,72.857v43.495a5.954,5.954,0,0,1-2.52,4.845,16.477,16.477,0,0,1-6.339,2.907,33.016,33.016,0,0,1-7.865.933q-8.17,0-13.438-4.342t-5.269-15.18q0-8.685,4.506-13.566t13.363-4.881a26.593,26.593,0,0,1,4.772.5,19.914,19.914,0,0,1,4.849,1.507V72.857Zm-7.941,22.752a16.408,16.408,0,0,0-4.087-1.542,18.793,18.793,0,0,0-4.39-.539q-10.843,0-10.842,12.13,0,6.029,2.444,9.438t8.551,3.41a19.176,19.176,0,0,0,5.917-.789q2.407-.791,2.407-2.083Z"/>
      <path id="Path_28" data-name="Path 28" class="cls-5" d="M189.45,92.487q4.16,5.419,4.086,15.181H166.658q.381,5.313,3.322,8.074t8.361,2.764a26.827,26.827,0,0,0,6.718-.826,25.822,25.822,0,0,0,5.651-2.117V122.6a35.816,35.816,0,0,1-13.668,2.44q-8.63,0-13.553-4.917t-4.925-13.959q0-9.261,4.658-14.177t13.133-4.916Q185.29,87.068,189.45,92.487ZM169.788,95.25q-2.29,2.012-2.977,6.82h18.554q-.534-4.593-2.75-6.711t-6.489-2.118A9.288,9.288,0,0,0,169.788,95.25Z"/>
      <path id="Path_29" data-name="Path 29" class="cls-5" d="M204.874,88.18a45.738,45.738,0,0,1,9.431-1.04q8.016,0,11.835,3.158t3.818,9.833v23.83H221.94V101.136q0-7.536-9.088-7.536a25.458,25.458,0,0,0-8.321,1.363v29h-8.018V90.872A37.245,37.245,0,0,1,204.874,88.18Z"/>
      <path id="Path_30" data-name="Path 30" class="cls-6" d="M233.472,76.087h33.367v6.674H241.947V96.614h21.686v6.747H241.87v13.925h24.969v6.675H233.472Z"/>
      <path id="Path_31" data-name="Path 31" class="cls-6" d="M303.032,87.93l-15.806,38.256q-4.889,11.7-13.21,11.7s-1.11-.062-2.116-.122l-.49-6.576a7.8,7.8,0,0,0,1.385.094,6.064,6.064,0,0,0,4.7-1.866,15.309,15.309,0,0,0,2.94-5.67L264.777,87.93h9.086l10.462,26.915L294.709,87.93Z"/>
      <path id="Path_32" data-name="Path 32" class="cls-6" d="M331.092,92.487q4.161,5.419,4.086,15.181H308.3q.381,5.313,3.322,8.074t8.361,2.764a26.829,26.829,0,0,0,6.719-.826,25.812,25.812,0,0,0,5.65-2.117V122.6a35.816,35.816,0,0,1-13.668,2.44q-8.629,0-13.553-4.917t-4.925-13.959q0-9.261,4.659-14.177T318,87.068Q326.932,87.068,331.092,92.487ZM311.43,95.25q-2.289,2.012-2.977,6.82h18.554q-.534-4.593-2.749-6.711t-6.489-2.118A9.289,9.289,0,0,0,311.43,95.25Z"/>
    </g>
  </g>
</svg>
