<svg xmlns="http://www.w3.org/2000/svg" width="512" height="512" viewBox="0 0 10.672 29.106">
  <defs>
    <style>
      .cls-1 {
        fill: #fbca33;
      }
    </style>
  </defs>
  <path id="Path_7" data-name="Path 7" class="cls-1" d="M5.758,0A3.4,3.4,0,0,0,2.363,3.394V19.653a5.335,5.335,0,1,0,8.728,4.108,5.285,5.285,0,0,0-1.94-4.108V3.394A3.4,3.4,0,0,0,5.758,0Zm4.364,23.761a4.364,4.364,0,1,1-6.983-3.486.485.485,0,0,0,.194-.388V18.427H4.3v-.97h-.97V16H4.3v-.97h-.97V13.578H4.3v-.97h-.97V11.153H4.3v-.97h-.97V8.728H4.3v-.97h-.97V6.3H4.3v-.97h-.97V3.394a2.425,2.425,0,1,1,4.849,0V19.888a.485.485,0,0,0,.194.388A4.331,4.331,0,0,1,10.122,23.761Zm0,0" transform="translate(-0.42)"/>
</svg>
